<?xml version="1.0" encoding="UTF-8"?>
<svg id="Capa_1" xmlns="http://www.w3.org/2000/svg" version="1.1" viewBox="0 0 604.6 193.4">
  <!-- Generator: Adobe Illustrator 29.0.0, SVG Export Plug-In . SVG Version: 2.1.0 Build 186)  -->
  <defs>
    <style>
      .st0 {
        fill: #fff;
      }
    </style>
  </defs>
  <g>
    <path class="st0" d="M158.8,38.4c12.9,0,24,4.6,33.2,13.7,9.1,9.2,13.7,20.3,13.7,33.2l-.2,4.9h-76c1.1,6.7,4.2,12.4,9.3,17,5.6,5.2,12.3,7.8,20,7.8s10.7-1.5,15.5-4.4c4.6-2.8,8.5-7.2,11.6-13.2l15.9,6.9c-4.6,9.1-10.6,16.1-18,20.8-7.6,4.8-15.9,7.2-25,7.2-12.9,0-23.9-4.6-33.2-13.7-9.2-9.2-13.8-20.3-13.8-33.2s4.6-24,13.8-33.2c9.2-9.1,20.3-13.7,33.2-13.7h0ZM185.8,72.9c-2-4.3-5.3-8.1-9.6-11.5-5.2-3.8-10.9-5.6-17.3-5.6s-12.2,1.9-17.3,5.6c-3.8,2.6-7.1,6.4-9.7,11.5h54,0Z"/>
    <path class="st0" d="M230.4,118.6c-9.1-9.2-13.7-20.3-13.7-33.2s4.6-24,13.7-33.2c9.2-9.1,20.3-13.7,33.2-13.7s24,4.6,33.2,13.7c9.1,9.2,13.7,20.3,13.7,33.2s-4.6,24-13.7,33.2c-9.2,9.1-20.3,13.7-33.2,13.7s-24-4.6-33.2-13.7ZM242.7,64.4c-5.9,5.7-8.8,12.7-8.8,20.9s2.9,15.2,8.8,21c5.7,5.8,12.7,8.7,20.9,8.7s15.1-2.9,20.9-8.7c5.8-5.8,8.7-12.8,8.7-21s-2.9-15.1-8.7-20.9c-5.7-5.8-12.7-8.7-20.9-8.7s-15.1,2.9-20.9,8.7Z"/>
    <path class="st0" d="M322.3,23.9h17.3v15.5h15.3v17.3h-15.3v43.8c0,3.7,1.3,6.8,3.8,9.4,2.6,2.6,6.4,3.9,11.5,3.9v17.3c-9.8,0-17.8-3-23.8-9-5.9-6-8.9-13.2-8.9-21.6V23.9h0Z"/>
    <path class="st0" d="M370.7,26.3c-2.1-2.2-3.1-4.7-3.1-7.7s1-5.6,3.1-7.8c2.2-2.1,4.7-3.1,7.7-3.1s5.6,1.1,7.8,3.1c2.1,2.2,3.1,4.8,3.1,7.8s-1,5.5-3.1,7.7c-2.2,2.1-4.8,3.1-7.8,3.1s-5.5-1.1-7.7-3.1ZM369.7,39.6h17.3v91.5h-17.3V39.5h0Z"/>
    <path class="st0" d="M402.4,0h17.4v131.1h-17.4V0Z"/>
    <path class="st0" d="M478.2,38.4c12.9,0,24,4.6,33.2,13.7,9.2,9.2,13.7,20.3,13.7,33.2l-.2,4.9h-76c1.1,6.7,4.2,12.4,9.3,17,5.6,5.2,12.3,7.8,20,7.8s10.7-1.5,15.5-4.4c4.6-2.8,8.5-7.2,11.6-13.2l15.8,6.9c-4.6,9.1-10.6,16.1-18,20.8-7.6,4.8-15.9,7.2-25,7.2-12.9,0-24-4.6-33.2-13.7-9.2-9.2-13.8-20.3-13.8-33.2s4.6-24,13.8-33.2c9.2-9.1,20.3-13.7,33.2-13.7h0ZM505.1,72.9c-2-4.3-5.3-8.1-9.6-11.5-5.2-3.8-10.9-5.6-17.3-5.6s-12.2,1.9-17.3,5.6c-3.8,2.6-7,6.4-9.7,11.5h54,0Z"/>
    <path class="st0" d="M572,132.3c-7.6,0-14.5-1.9-20.7-5.5-7.5-4.4-12.7-11.5-15.5-21.2l16.6-4.8c1.6,5.4,4.3,9.2,8.1,11.3,3.3,1.8,7.2,2.8,11.6,2.8.5,0,1.1,0,1.8,0,.7,0,1.3-.1,2.1-.3,1.8-.3,3.3-.8,4.8-1.5,3.8-1.8,5.8-4.8,6.2-9.1.1-1.9-.5-3.7-1.8-5.2-2.4-2.9-6.7-4.5-12.6-4.9-13.6-.9-23.4-4.4-29.4-10.4-2.4-2.4-4.2-5.2-5.3-8.4-.8-2.4-1.2-5-1.2-7.8,0-9,3.5-16.2,10.6-21.7,6.2-4.8,13.7-7.2,22.6-7.2s19.2,3.7,26.2,11.2c3.3,3.4,6.2,8,8.6,13.8l-16.1,6-2-3.9c-.8-1.5-1.8-2.8-3-4.1-3.8-3.8-8.3-5.7-13.8-5.7-1.1,0-2,.1-2.7.2-1.9.2-3.7.7-5.4,1.4-5.1,2-7.6,5.3-7.6,10.1s2,5,5.9,6.6c3.4,1.4,8,2.2,13.9,2.6,6,.4,11.2,1.8,15.7,4.1,3.5,1.8,6.5,4,8.9,6.8,4.5,5.2,6.5,11.1,5.9,17.8-.7,8.7-4.4,15.5-11.1,20.4-5.8,4.3-12.8,6.5-21,6.5h0Z"/>
  </g>
  <g>
    <path class="st0" d="M578.5,186.2c-1.6,2.7-3.7,4.6-6.5,5.8-4.1,1.7-8.4.6-10.9-3.1-2.2-3.3-3.3-6.9-2-10.8.6-1.8,1.6-3.3,2.8-4.8,1-1.3,2.1-2.5,2.9-4,.2-.5.7-1,.3-1.4-.4-.4-.8.3-1.2.5-.6.3-1.1.8-1.7,1.1-1.9,1.2-3.2,2.9-4.1,5-1,2.6-2,5.2-3.1,7.8-1.5,3.7-4.2,6.5-7.3,8.7-3.7,2.6-7.8,2.6-11.9.6-3.5-1.7-6.2-4.3-8.2-7.5-.4-.7-.4-.7-1.1-1.2-.6,1.6-1.4,3.1-2.2,4.6-2.1,3.9-6,5.9-10.2,5.3-4.1-.6-7.3-3.7-8.2-8-.3-1.3-.5-2.5-.7-3.8,0-.3,0-.6-.3-.9-.8.9-1.4,1.8-2,2.7-.8,1.2-1.6,2.5-2.3,3.8-1.3,2.2-3.1,3.8-5.2,5.1-4.9,3.1-10.3.4-11.2-5.3-.5-3.5.2-6.9.5-10.3.2-2.2.4-4.4,0-6.6,0-.4-.2-.7-.3-1.1-.5-1.2-1.4-1.6-2.7-1.1-1.3.6-2.3,1.6-3.2,2.7-.6.8-1.1,1.5-1.7,2.3-.4.6-1,1.1-1.6,1.5-.3.2-.6.3-.9,0-.3-.2-.4-.5-.3-.9,0-.2,0-.5.1-.7.2-.7.2-1.5.2-2.2-.2-2.2-1.3-3.7-2.8-4-2-.4-4.3.8-5.2,2.6-.3.7-.6,1.4-.7,2.1-.5,3.8-1.8,7.5-2.5,11.2-.7,3.1-1.4,6.2-1.5,9.4,0,1-.6,1.4-1.5,1.6-.9.2-1.5-.1-1.9-.9-.5-1-.5-2-.5-3,0-2.9.4-5.8.8-8.7.4-3.2,1-6.5,1-9.8,0-1.1-.1-2.2-.7-3.2-.3-.5-.5-.6-1-.2-1.1.9-2.4,1.8-3.5,2.7-1.4,1.1-2.1,2.6-2.7,4.2-.9,2.4-1.2,4.9-1.7,7.4-.3,1.9-.7,3.9-1.3,5.7-1.7,5-6.1,7-10.9,5.1-3.1-1.3-5.2-3.5-6.2-6.7-.4-1.4-1-2.8-1.2-4.4-.6.9-1.2,1.7-1.9,2.5-1.4,1.9-2.8,3.8-4.5,5.5-2.2,2.1-4.8,3.3-7.8,3.5-5.2.4-9.2-3.2-9.7-8.8-.2-2.3.2-4.5.6-6.8.1-.7.4-1.5.2-2.1-.2-.6-1.2-.4-1.8-.6-2-.8-4.1-1.2-6.2-1.8-.6-.2-1.1-.4-1.6-.7-1.8-1.1-1.7-3.6.2-4.7.2-.1.5-.2.5-.5,0-.3-.4-.3-.7-.3-2.8.1-5.4,1-7.7,2.6-2.5,1.8-3.6,4.1-3.5,7.2,0,1.2.3,2.4.5,3.6.6,2.8,1.4,5.5,1.6,8.4,0,.8,0,1.5,0,2.3,0,.4.1.9-.4,1-.5.2-1,.1-1.4-.2-.6-.5-1-1.2-1.4-1.9-.8-1.6-1.2-3.3-1.8-5-.4-1-.7-2-1.1-2.9-.3-.6-.6-1.2-1-1.8-.4-.6-1-1.3-1.6-1.2-.6.1-.4,1.1-.5,1.7-.8,3.6-1.9,7.1-4.4,10-2.2,2.5-5.6,3.2-8.9,1.9-2.1-.8-3.8-2.2-5.5-3.6-1.5-1.4-3-2.8-4.6-4.1-.4-.3-.7-.4-1.2,0-1.8,1.1-3.5,2.2-5,3.5-2,1.7-4.2,3-6.6,4-2.8,1.2-5.7,1-8.5.2-6.6-1.9-11-6.1-12.6-12.9-.6-2.6,0-5.3.5-7.9.4-2.1,1.1-4.2,2.4-6,.8-1.1,1.8-2,3-2.7,3-1.5,6.3-2.3,9.7-2.1.8,0,1.6.2,2.3.5,1.8.7,2.8,2.1,2.9,4.1,0,.3.1.6-.3.8-.4.1-.6-.1-.8-.4-1-1.4-2.3-2-4-2.2-4.8-.4-9.7,2.6-11.4,7-1,2.5-1.4,5.1-1.3,7.8.1,5.6,3.8,8.6,8.4,10.8,2,.9,4.2,1.4,6.3.6,2.6-1,5.2-2.2,7.3-4.2,1.4-1.3,2.6-2.9,4.4-3.8.4-.2.3-.4,0-.7-.9-1.3-1.9-2.6-2.7-4-1.3-2.1-2.4-4.3-2.5-6.8-.1-4.5,2.3-7.7,6.7-8.8,2.8-.6,5.5-.6,8.3.2,4.5,1.3,6.9,5.1,6.1,9.8-.8,5-3.4,8.5-8.5,11.4,1.6,1.8,3,3.7,4.9,5.2,1.7,1.3,3.6,1.7,5.6,1.3,1.8-.3,3-1.6,3.9-3,1.6-2.8,2.7-5.7,2.8-9,0-2.7-.3-5.5.5-8.1.1-.3,0-.7,0-1.1,0-.6.3-1,.8-1.2.5-.2.8.1,1.1.4,1.4,1.3,2.6,2.8,3.6,4.6.2-.4.4-.6.5-1,1.9-4.5,5.6-6.8,10.1-8.3,2-.7,4.1-1.1,6.2-.8,3.2.5,5.1,2.4,6.1,5.4,0,.2,0,.4.2.6.5,1.5,1.9,1.9,3.1,1,1.8-1.5,3.6-3,5.6-4.1,3.7-2.1,7.5-3.4,11.8-2.8,3,.4,5.7,1.5,7.9,3.7.4.4.6.9.7,1.5.4,3.7.1,7.4.5,11.1.2,2.4.4,4.7.6,7,.1,1.7,1.5,3.4,3.2,3.8,1.8.5,3.2-.2,4.4-1.5,1.2-1.3,1.8-2.9,2.2-4.6.6-3,1.2-6,1.8-8.9.8-3.6,2.6-6.7,5.2-9.4.5-.5,1.1-1,1.7-1.4,1.8-1.1,3.5-1.2,5.2,0,.8.5,1.5,1.1,2.2,1.6.6.4,1,.4,1.6-.2,2.2-2.4,5-3.5,8.3-3.4,1.4,0,2.6.7,3.5,1.8.5.6,1.1,1.3,1.6,1.9.3.4.5.4.9.1,1-.7,2-1.3,3.2-1.6,2.5-.5,4.6,0,6.1,2.1,1.3,1.8,2,3.7,2.1,5.9.2,3.4-.4,6.7-.7,10-.2,1.8-.2,3.7.3,5.5.5,1.4,1.2,1.7,2.6,1.3,2.8-.8,4.8-2.5,6.4-5,1.9-3,3.1-6.5,4.5-9.7,1-2.3,1.9-4.6,3.2-6.7.8-1.3,1.8-2,3.3-2.2.8-.1,1.6,0,2.2.7.5.7.3,1.5,0,2.2-.2.4-.4.7-.6,1-.5.7-.9,1.5-.8,2.3,0,2.5-.4,5.1.1,7.6.5,2.2.9,4.3,1.1,6.5.1,1.4.9,2.5,2.2,3.1.8.4,1.5.7,2.3,1,.9.4,1.7,0,2.4-.6,1.8-1.4,3.3-3.1,4.3-5.2,1.2-2.5,1.9-5.3,2.7-8,1.9-6,5.5-10.5,11.5-12.8,4.3-1.7,8.5-1.2,12.4,1.3,1.5,1,2.6,2.3,3,4.1,0,.3.1.6.1.9,0,.8-.8,1.2-1.4.7-.7-.5-1.3-1.1-1.9-1.8-1.8-2.3-4.2-2.9-7-2.5-2.9.4-5.4,1.4-7.8,3.1-2,1.5-2.8,3.7-3.1,6.1-.4,3.7.3,7.2,2.2,10.4,2,3.5,5,4.7,9,4.1,2.4-.4,4.2-1.6,5.8-3.2,3.2-3.1,5.5-6.9,6.9-11.1,1.5-4.5,4.3-7.9,8.2-10.4,5-3.2,12.4-2.8,17.2.7,2.2,1.6,3.4,3.8,3.4,6.6,0,3.1-.4,6.2-.7,9.4-.1,1.4-.2,2.8,0,4.1.2,2.1,1.8,3.2,3.9,2.7,1.4-.3,2.7-1.1,3.9-1.9,1.7-1,3.4-2,5.4-2.6.8-.2,1.7-.4,2.5-.4,1.8,0,3,1.5,2.9,3.3,0,.3-.1.5-.4.6-3.7,1.4-7.1,3.3-11,4-4,.8-7.5-.2-10-3.6-.2-.3-.5-.5-.7-.8M409.8,184.9c.7,3.5,3.4,5.1,6.8,4.1,1.8-.5,3.3-1.5,4.6-2.8,3.5-3.3,5.9-7.3,7.8-11.7.7-1.6,1.3-3.2,1.7-4.9.2-1.1,0-2.1-.9-2.8-3-1.9-6-2.4-9.1-.5-.9.6-1.8,1.3-2.8,1.8-5.5,3.2-7.8,8.3-8.4,14.4,0,.8,0,1.6.2,2.4M350.3,169.1c-1,2.7-.4,5.2,1.4,7.3.8,1,2,1.6,2.8,2.7.8,1.1,1.3,1.2,2.5.5,1.4-.7,2.6-1.7,3.8-2.7,2-1.6,3.2-3.7,3.7-6.3.1-.9.3-1.8.5-2.7.1-.8-.1-1.3-.8-1.7-2-1.3-4.1-2-6.2-2-3.7,0-6.6,2-7.7,5M562.8,186.6c1.2,2.4,3.5,3.4,6.1,2.6,2-.6,3.6-2,4.9-3.6,3.4-4.1,4.9-9,5.8-14.2.2-1.3-.4-2.4-1.5-2.9-3.7-1.7-6-1.7-8.7.9-.3.2-.5.5-.8.8-2,2.4-3.8,5-5.2,7.8-.8,1.6-1.4,3.3-1.5,5.1,0,1.2.3,2.4.8,3.5"/>
    <path class="st0" d="M507.7,156.3c3.5-.2,3.8,2.1,3.2,5.1,0,.4-.4.4-.6.4-1.1.2-2.2,0-3.3-.3-.3,0-.4-.3-.5-.6-.6-1.2-.9-2.5-1.1-3.9,0-.5,0-.6.5-.6.6,0,1.2-.1,1.7-.2"/>
    <path class="st0" d="M430.9,152.5c-2.7-1.3-4.2,2.2-5.4,6.6-.2.5,0,.6.3.8.8.6,1.7.7,2.7.6.3,0,.5-.3.8-.6,1.2-1.5,2.1-3.3,3-5.1.3-.6.3-.9,0-1-.7-.1-.9-1-1.3-1.3"/>
  </g>
  <path class="st0" d="M54.3,193.4c32.5,0,54.3-14.7,54.3-36.6s-15.3-33.8-40.9-36.5h-1.4v-1.6l1.2-.3c19.6-4.4,33.3-21.5,33.3-40.3s-3.2-16.8-9.3-23.6l-.9-1,15.9-18.7-13.5-11.4-16.7,19.7-1-.4c-6.5-2.8-13.7-4.2-21-4.2-26.5,0-46.5,17-46.5,39.6s13.7,35.9,33.3,40.3l1.2.3v1.4h-1.4C15.3,123,0,137.3,0,156.8s21.8,36.6,54.3,36.6h0ZM26.6,78.7c0-14.7,10.6-23.8,27.7-23.8s27.7,9.1,27.7,23.8-10.6,24-27.7,24-27.7-9.2-27.7-24ZM54.3,133.9c21.5,0,34.8,8.2,34.8,21.5s-13.3,21.7-34.8,21.7-34.8-8.3-34.8-21.7,13.3-21.5,34.8-21.5Z"/>
</svg>