<?xml version="1.0" encoding="UTF-8"?><svg id="Capa_1" xmlns="http://www.w3.org/2000/svg" xmlns:xlink="http://www.w3.org/1999/xlink" viewBox="0 0 121.08 42.9"><defs><style>.cls-1{fill:none;}.cls-2{fill:#fff;}.cls-3{clip-path:url(#clippath);}</style><clipPath id="clippath"><rect class="cls-1" width="121.08" height="42.9"/></clipPath></defs><g class="cls-3"><path class="cls-2" d="M18.11,8.7C18.11,4.27,14.51.68,10.08.68c-2.84,0-.41-.03-2.81-.02L0,.68v22.35h7.27V6.87h1.7c1.04,0,1.88.84,1.88,1.88s-.84,1.88-1.88,1.88h-.63v6.05c.35.02.69.02,1.02.02h.72c4.43.01,8.02-3.58,8.02-8.01"/><path class="cls-2" d="M26.87,9.4c0-1.19.97-2.16,2.16-2.16s2.16.97,2.16,2.16c0,.38.02.28,0,.46v1.9h-4.33v-2.36ZM28.98.05c-5.21,0-9.43,4.22-9.43,9.43s0,1.1,0,1.1v12.44h7.3v-4.9h4.34v4.9h7.22v-13.54C38.41,4.28,34.19.05,28.98.05"/><path class="cls-2" d="M88.9,16.89v5.98c2.51,1.09,5.82.59,7.99-.87,2.39-1.72,3.89-4.68,3.26-7.82-.15-2.32-2.62-3.74-2.17-6.25.26-.6.79-1.12,1.5-1.16.41-.04.89,0,1.27,0V.44c-.49-.15-.89-.21-1.5-.34-2.73-.49-5.35.75-7.04,2.55-1.95,2.06-2.36,5.58-1.35,8.27.3,1.91,3.11,3.59,1.16,5.61-.72.59-2,.35-3.12.35"/><path class="cls-2" d="M109.53,11.76v-2.36c0-1.19.98-2.16,2.17-2.16s2.16.97,2.16,2.16c0,.38.02.28,0,.46v1.9h-4.33ZM102.23,10.58v12.44h7.3v-4.9h4.34v4.9h7.22v-13.54C121.08,4.28,116.86.05,111.65.05s-9.43,4.22-9.43,9.43,0,1.1,0,1.1"/><path class="cls-2" d="M47.99,23.02v-14c0-.5.21-.96.54-1.29.33-.33.78-.53,1.28-.53s.96.2,1.29.53.53.78.53,1.29v.41s0,13.59,0,13.59h7.26v-14c0-.5.2-.96.53-1.28.33-.33.78-.53,1.28-.53s.96.2,1.29.53c.33.33.53.78.53,1.28v14h7.26l-.02-11.82c0-1.2-.06-2.37-.25-3.47-.2-1.11-.53-2.15-1.09-3.11-.62-1.15-1.48-1.87-2.43-2.69l-.22-.19c-1.38-1.03-3.19-1.56-5.03-1.63-1.91-.07-3.85.36-5.39,1.25h0s0,0,0,0l-1.54-.6c-1.24-.45-2.72-.7-4.17-.64-1.3.05-2.58.34-3.64.94h0c-1.53.75-2.85,1.92-3.79,3.38-.89,1.39-1.44,3.03-1.47,4.8v13.77h7.26Z"/><path class="cls-2" d="M74.62,11.75c-.43.24-.84.49-1.22.79-.38.3-.74.65-1.05,1.12-.58.83-.84,1.89-.84,2.97,0,1.2.3,2.41.81,3.34.44.84,1.1,1.5,1.88,1.99.87.55,1.89.89,2.9,1.03,3.13.04,9.35.04,9.71.04v-6.1c-.27,0-3.77,0-5.79,0-.4,0-.76-.16-1.02-.42-.26-.26-.42-.62-.42-1.02s.16-.76.42-1.02.62-.42,1.02-.42c1.68,0,5.49,0,5.78,0v-4.59h-5.79c-.39,0-.74-.16-1-.42-.26-.26-.42-.61-.42-1s.16-.73.42-.98c.26-.25.63-.41,1.02-.41h5.76V.72c-.22,0-2.45.01-4.5,0-1.59,0-3.28.01-4.74.22-1.47.2-2.72.58-3.45,1.28h0c-.88.71-1.52,1.6-1.9,2.6-.38,1-.51,2.12-.34,3.26h0c.09.86.46,1.55.97,2.14.51.59,1.15,1.07,1.79,1.52l.02.02h-.02Z"/><path class="cls-2" d="M108.28,40.18c-.65,1.1-1.52,1.89-2.65,2.36-1.69.71-3.42.24-4.43-1.27-.89-1.33-1.33-2.8-.82-4.41.23-.74.67-1.36,1.14-1.97.41-.53.87-1.03,1.19-1.63.1-.18.28-.42.12-.58-.17-.17-.34.11-.49.2-.24.14-.45.31-.68.46-.77.5-1.32,1.17-1.66,2.02-.41,1.06-.84,2.11-1.25,3.16-.6,1.51-1.7,2.64-2.98,3.53-1.51,1.05-3.2,1.05-4.84.24-1.41-.69-2.52-1.74-3.35-3.08-.18-.29-.17-.29-.44-.48-.25.66-.58,1.27-.91,1.88-.86,1.6-2.43,2.41-4.18,2.15-1.68-.24-2.99-1.51-3.34-3.26-.1-.51-.19-1.03-.29-1.55-.02-.12-.02-.24-.12-.37-.31.35-.56.72-.8,1.1-.32.51-.64,1.01-.94,1.53-.52.88-1.25,1.55-2.1,2.1-1.98,1.27-4.2.17-4.55-2.17-.21-1.44.07-2.81.22-4.21.1-.9.16-1.79-.03-2.69-.03-.15-.07-.29-.13-.43-.21-.51-.58-.66-1.09-.44-.54.24-.95.64-1.3,1.11-.23.31-.45.63-.68.94-.18.24-.39.45-.66.61-.12.07-.24.14-.38.04-.13-.09-.16-.22-.14-.37.01-.1.04-.2.06-.29.06-.29.1-.59.07-.89-.08-.88-.53-1.51-1.15-1.62-.82-.14-1.74.32-2.11,1.05-.14.27-.24.56-.28.85-.2,1.56-.71,3.04-1.03,4.56-.27,1.27-.57,2.54-.61,3.84-.01.41-.26.56-.61.64-.35.08-.62-.05-.77-.38-.19-.39-.22-.82-.22-1.25,0-1.19.18-2.36.33-3.54.17-1.32.43-2.64.4-3.98,0-.45-.05-.9-.28-1.31-.11-.2-.21-.26-.42-.09-.46.38-.96.72-1.43,1.09-.56.44-.85,1.07-1.09,1.72-.36.98-.5,2.01-.67,3.03-.14.79-.26,1.58-.52,2.34-.68,2.02-2.47,2.87-4.44,2.06-1.26-.51-2.13-1.42-2.53-2.74-.18-.58-.42-1.14-.5-1.78-.25.35-.51.69-.76,1.04-.56.78-1.13,1.56-1.83,2.23-.89.85-1.94,1.35-3.17,1.45-2.12.17-3.75-1.31-3.95-3.57-.09-.93.1-1.84.25-2.75.05-.28.17-.6.09-.84-.08-.27-.47-.15-.71-.25-.81-.34-1.67-.49-2.51-.72-.23-.06-.45-.15-.65-.28-.72-.47-.68-1.49.08-1.91.09-.05.22-.07.19-.2-.03-.13-.18-.12-.29-.12-1.15.04-2.2.39-3.14,1.07-1,.72-1.48,1.69-1.42,2.93.03.5.11.99.21,1.48.24,1.13.58,2.25.64,3.42.02.31.01.62,0,.94,0,.16.04.35-.16.42-.2.07-.4.04-.57-.09-.26-.21-.42-.49-.56-.79-.31-.66-.5-1.36-.75-2.04-.14-.4-.29-.8-.46-1.19-.11-.25-.25-.49-.4-.72-.16-.24-.39-.55-.66-.48-.23.06-.15.45-.2.7-.34,1.46-.76,2.91-1.77,4.07-.91,1.04-2.28,1.32-3.63.79-.85-.33-1.56-.88-2.23-1.49-.62-.56-1.21-1.15-1.88-1.66-.17-.13-.3-.15-.49-.03-.72.43-1.42.89-2.05,1.44-.8.69-1.71,1.21-2.67,1.64-1.13.51-2.31.39-3.45.07-2.71-.77-4.49-2.5-5.13-5.27-.25-1.07-.02-2.16.19-3.23.17-.88.46-1.71.97-2.45.32-.46.72-.83,1.22-1.09,1.24-.62,2.55-.93,3.94-.85.33.02.64.09.95.2.75.29,1.16.86,1.18,1.66,0,.11.06.26-.1.32-.16.06-.26-.05-.34-.16-.39-.57-.95-.83-1.62-.89-1.94-.16-3.95,1.08-4.65,2.87-.4,1.02-.58,2.09-.55,3.19.06,2.3,1.55,3.52,3.42,4.41.81.38,1.7.56,2.55.23,1.07-.4,2.11-.91,2.96-1.73.56-.55,1.04-1.18,1.78-1.53.17-.08.12-.17.03-.29-.38-.54-.76-1.08-1.12-1.64-.54-.85-.97-1.75-1.01-2.78-.06-1.84.93-3.14,2.72-3.56,1.13-.27,2.26-.23,3.37.09,1.85.53,2.82,2.1,2.5,4-.34,2.06-1.4,3.48-3.48,4.65.64.74,1.21,1.52,2.01,2.11.7.51,1.46.68,2.3.54.74-.13,1.23-.63,1.59-1.22.67-1.12,1.12-2.32,1.14-3.67.02-1.1-.12-2.22.21-3.31.04-.14,0-.3,0-.45,0-.24.11-.41.31-.51.2-.1.33.05.46.17.58.53,1.05,1.16,1.45,1.88.09-.15.17-.27.23-.39.79-1.84,2.31-2.79,4.11-3.4.83-.28,1.67-.44,2.54-.31,1.3.2,2.09.98,2.47,2.21.03.08.04.17.07.25.2.6.79.79,1.27.39.73-.61,1.46-1.21,2.29-1.68,1.49-.84,3.05-1.39,4.8-1.13,1.21.18,2.31.63,3.21,1.5.18.17.26.37.29.62.18,1.51.05,3.02.21,4.53.1.96.17,1.91.25,2.87.05.7.63,1.38,1.28,1.56.74.21,1.33-.08,1.8-.63.47-.54.73-1.19.88-1.88.26-1.21.48-2.43.74-3.63.32-1.48,1.07-2.73,2.11-3.82.21-.22.44-.41.69-.57.71-.47,1.43-.48,2.14,0,.31.21.61.44.91.66.23.17.4.17.63-.08.92-.97,2.05-1.43,3.39-1.38.58.02,1.05.28,1.42.73.21.26.43.52.64.78.11.14.2.17.36.04.39-.3.82-.54,1.3-.64,1-.22,1.86,0,2.5.86.53.71.81,1.5.85,2.4.06,1.37-.15,2.72-.27,4.07-.07.75-.1,1.5.13,2.22.19.59.47.69,1.07.52,1.14-.32,1.96-1.03,2.59-2.02.79-1.24,1.26-2.63,1.84-3.97.4-.93.77-1.87,1.29-2.74.31-.52.75-.82,1.35-.92.34-.05.66-.01.87.29.2.29.13.6,0,.89-.07.15-.17.28-.26.41-.19.28-.36.6-.35.94.04,1.03-.17,2.07.05,3.1.18.88.38,1.76.47,2.65.05.57.38,1,.91,1.25.3.14.61.28.92.41.38.16.69-.03.97-.24.75-.56,1.34-1.27,1.74-2.12.5-1.04.77-2.16,1.12-3.25.77-2.46,2.24-4.29,4.7-5.23,1.77-.68,3.46-.51,5.04.53.61.4,1.07.93,1.24,1.67.03.12.05.25.05.37-.01.33-.31.49-.57.28-.27-.22-.54-.45-.76-.72-.75-.92-1.73-1.17-2.85-1.04-1.17.14-2.22.57-3.16,1.28-.83.63-1.16,1.52-1.26,2.5-.15,1.49.12,2.92.88,4.22.83,1.4,2.05,1.91,3.65,1.67.97-.15,1.71-.64,2.39-1.3,1.32-1.28,2.23-2.8,2.81-4.54.6-1.82,1.76-3.21,3.36-4.22,2.05-1.29,5.06-1.14,7.01.3.91.66,1.38,1.54,1.39,2.68.01,1.28-.17,2.54-.27,3.81-.05.56-.08,1.12-.02,1.68.09.88.73,1.31,1.59,1.11.58-.14,1.08-.45,1.58-.75.69-.43,1.4-.83,2.18-1.05.34-.1.68-.18,1.03-.16.72.04,1.23.63,1.17,1.34,0,.11-.05.19-.16.23-1.49.58-2.91,1.33-4.49,1.64-1.65.33-3.04-.07-4.09-1.45-.08-.11-.18-.2-.3-.33M39.5,39.64c.3,1.41,1.38,2.07,2.77,1.68.73-.2,1.33-.62,1.87-1.13,1.43-1.34,2.4-2.99,3.19-4.76.29-.65.54-1.32.69-2.02.1-.45.03-.85-.39-1.12-1.2-.78-2.46-.97-3.7-.21-.38.24-.74.51-1.13.74-2.26,1.3-3.17,3.38-3.41,5.85,0,.34.03.66.1.98M15.24,33.23c-.39,1.1-.17,2.11.58,2.97.33.39.82.64,1.12,1.09.31.45.52.49,1.02.23.57-.3,1.06-.71,1.55-1.11.82-.67,1.32-1.52,1.5-2.56.06-.37.12-.74.19-1.11.06-.31-.05-.53-.31-.7-.81-.51-1.67-.83-2.53-.83-1.52.03-2.68.81-3.12,2.03M101.89,40.34c.48.98,1.43,1.38,2.48,1.05.83-.26,1.46-.8,2-1.46,1.38-1.69,2.02-3.68,2.36-5.79.09-.52-.15-.96-.62-1.18-1.5-.68-2.44-.7-3.54.36-.11.1-.22.21-.31.32-.82.98-1.54,2.03-2.11,3.18-.32.65-.57,1.33-.6,2.1,0,.48.12.96.34,1.42"/><path class="cls-2" d="M79.4,27.99c1.43-.06,1.55.86,1.32,2.08-.03.15-.16.15-.26.17-.45.08-.89.01-1.33-.12-.12-.04-.17-.13-.23-.23-.24-.5-.35-1.03-.43-1.58-.03-.19.04-.24.21-.25.24-.01.47-.04.71-.07"/><path class="cls-2" d="M48.1,26.44c-1.09-.55-1.7.91-2.21,2.69-.06.22.04.26.11.32.31.26.7.3,1.12.26.12-.01.21-.12.31-.25.48-.62.86-1.33,1.23-2.07.12-.25.1-.35-.03-.42-.29-.05-.36-.41-.53-.52"/></g></svg>