<?xml version="1.0" encoding="utf-8"?>
<!-- Generator: Adobe Illustrator 26.3.1, SVG Export Plug-In . SVG Version: 6.00 Build 0)  -->
<svg version="1.1" id="Capa_1" xmlns="http://www.w3.org/2000/svg" xmlns:xlink="http://www.w3.org/1999/xlink" x="0px" y="0px"
	 viewBox="0 0 486.5 95.1" style="enable-background:new 0 0 486.5 95.1;" xml:space="preserve">
<style type="text/css">
	.st0{display:none;}
	.st1{display:inline;}
	.st2{fill:#20201E;}
	.st3{fill-rule:evenodd;clip-rule:evenodd;fill:#20201E;}
	.st4{fill:#1D1D1B;}
</style>
<g class="st0">
	<g class="st1">
		<polygon class="st2" points="0,41.4 8.5,41.4 8.5,11.9 59.8,43 59.8,1.9 51.3,1.9 51.3,31.1 0,0 		"/>
		<path class="st3" d="M131.1,33.1l7.8,9.9h9.2L115.4,1.8L82.8,43H92l7.8-9.9H131.1L131.1,33.1z M127.5,28.6h-24.3l12.1-16
			L127.5,28.6L127.5,28.6z"/>
		<polygon class="st2" points="185.6,8 201.8,8 201.8,3.5 160.9,3.5 160.9,8 177.1,8 177.1,43 185.6,43 		"/>
		<path class="st2" d="M226.6,2.7v25c0,8.7,9.3,15.3,25,15.3s25-6.7,25-15.3v-25h-8.5V26c0,6.4-3.4,12.4-16.5,12.4
			s-16.5-6-16.5-12.4V2.7H226.6L226.6,2.7z"/>
		<path class="st2" d="M353.9,4.5c-5.2-1.8-11.2-2.7-17.2-2.7c-20.1,0-36.3,9.1-36.3,20.8C300.4,34,316.5,43,336,43
			c6,0,12.7-1,17.9-2.8v-5.8c-5.1,2.6-11.5,4.1-18.2,4.1c-15.2,0-26.8-7.4-26.8-16c0-8.7,11.7-16.1,27-16.1c6.4,0,13.1,1.4,18,3.9
			V4.5L353.9,4.5z"/>
		<polygon class="st2" points="382.2,43 418.9,43 418.9,38.5 390.7,38.5 390.7,23.6 418.1,23.6 418.1,19.1 390.7,19.1 390.7,8 
			418.9,8 418.9,3.5 382.2,3.5 		"/>
		<path class="st3" d="M463.4,25.8c9.9-0.7,16.4-5.4,16.4-11.1c0-3.8-3.3-7.5-9-9.4c-5.4-1.8-12-1.8-18-1.8h-10.3V43h8.5V26.3h3.5
			L474.6,43H485L463.4,25.8L463.4,25.8z M451,7.9h2.3c8.4,0,18.6,0.9,18.6,7.1c0,6.3-9.4,7.2-18.1,7.2H451V7.9L451,7.9z"/>
	</g>
	<g class="st1">
		<path class="st2" d="M122.2,80.5c-0.5,0.2-1.1,0.3-1.6,0.5c-1.2,0.3-2.3,0.4-3.3,0.4c-2.9,0-5.3-0.7-7.2-2.2
			c-1.9-1.5-2.8-3.4-2.8-5.7c0-2.3,0.9-4.2,2.8-5.7s4.2-2.3,7.1-2.3c1,0,2,0.1,3.1,0.4c0.6,0.1,1.1,0.3,1.6,0.4
			c0.5,0.2,1,0.4,1.6,0.6v2c-0.7-0.3-1.2-0.6-1.8-0.8s-1-0.3-1.6-0.5c-1-0.3-2-0.4-3.2-0.4c-1.1,0-2.1,0.2-3,0.5s-1.7,0.8-2.4,1.4
			c-1.4,1.2-2.2,2.7-2.2,4.5c0,1.9,0.7,3.4,2.1,4.6s3.3,1.8,5.5,1.8c1.2,0,2.4-0.2,3.4-0.5c0.5-0.2,1.1-0.3,1.6-0.5s1.1-0.4,1.7-0.7
			v1.8C123.3,80.1,122.8,80.3,122.2,80.5z"/>
		<path class="st2" d="M126.4,81.2V65.6h10.3v1.5h-8.3v5.5h8.1v1.5h-8.1v5.5h8.5v1.5L126.4,81.2L126.4,81.2z"/>
		<path class="st2" d="M152.4,81.2l-3.2-4.2c-0.3-0.4-0.6-0.8-0.9-1.2c-0.3-0.4-0.6-0.7-0.9-1c-0.3-0.2-0.6-0.4-1-0.6
			s-0.9-0.2-1.5-0.2h-2.4v7.2h-2V65.6h4.8c1,0,1.8,0.1,2.6,0.3c0.8,0.2,1.4,0.4,2,0.8c1.1,0.7,1.7,1.8,1.7,3.1c0,1-0.4,1.9-1.1,2.5
			c-0.6,0.5-1.3,0.9-2,1.1c0.2,0.1,0.4,0.3,0.6,0.4c0.2,0.2,0.4,0.4,0.6,0.6c0.3,0.3,0.5,0.6,0.8,0.9s0.5,0.6,0.7,0.9l3.7,4.8
			L152.4,81.2L152.4,81.2z M148.3,67.9c-0.8-0.5-1.8-0.7-3.1-0.7h-2.8v5.3h2.6c1.4,0,2.5-0.2,3.2-0.7c0.7-0.4,1.1-1.1,1.1-2
			C149.4,68.9,149,68.3,148.3,67.9z"/>
		<path class="st2" d="M171.9,81.2l-2.8-5.2h-8.2l-2.8,5.2h-2.2l8.5-15.7h1.2l8.4,15.7C174,81.2,171.9,81.2,171.9,81.2z M165,68.3
			l-3.3,6.1h6.6L165,68.3z M166.2,64h-1l2-2.5h1.9L166.2,64z"/>
		<path class="st2" d="M192.7,81.2V68.3l-6.4,6.7l-6.4-6.7v12.9h-2V65.6h1.8l6.6,6.8l6.6-6.8h1.9v15.6H192.7L192.7,81.2z"/>
		<path class="st2" d="M199.2,81.2V65.6h2v15.6H199.2L199.2,81.2z"/>
		<path class="st2" d="M219.9,80.5c-0.5,0.2-1.1,0.3-1.6,0.5c-1.2,0.3-2.3,0.4-3.3,0.4c-2.9,0-5.3-0.7-7.1-2.2
			c-1.9-1.5-2.8-3.4-2.8-5.7c0-2.3,0.9-4.2,2.8-5.7c1.9-1.5,4.2-2.3,7.1-2.3c1,0,2,0.1,3.1,0.4c0.6,0.1,1.1,0.3,1.6,0.4
			c0.5,0.2,1,0.4,1.6,0.6v2c-0.7-0.3-1.2-0.6-1.8-0.8s-1-0.3-1.6-0.5c-1-0.3-2-0.4-3.2-0.4c-1.1,0-2.1,0.2-3,0.5s-1.7,0.8-2.4,1.4
			c-1.4,1.2-2.2,2.7-2.2,4.5c0,1.9,0.7,3.4,2.1,4.6c1.4,1.2,3.3,1.8,5.5,1.8c1.2,0,2.4-0.2,3.4-0.5c0.5-0.2,1.1-0.3,1.6-0.5
			s1.1-0.4,1.7-0.7v1.8C220.9,80.1,220.4,80.3,219.9,80.5z"/>
		<path class="st2" d="M239.1,81.2l-2.8-5.2H228l-2.8,5.2H223l8.5-15.7h1.2l8.4,15.7C241.2,81.2,239.1,81.2,239.1,81.2z M232.1,68.3
			l-3.3,6.1h6.6L232.1,68.3z"/>
		<path class="st2" d="M269.2,81.2l-13-12.7v12.7h-2V65.6h1.6c1.2,1.2,2.3,2.3,3.4,3.4s2.2,2.2,3.4,3.3c1,1,2.1,1.9,3.1,2.9
			s2.1,2,3.1,3.1V65.6h2v15.6H269.2L269.2,81.2z"/>
		<path class="st2" d="M290.6,81.2l-2.8-5.2h-8.2l-2.8,5.2h-2.2l8.5-15.7h1.2l8.5,15.7C292.7,81.2,290.6,81.2,290.6,81.2z
			 M283.7,68.3l-3.3,6.1h6.6L283.7,68.3z"/>
		<path class="st2" d="M298.5,67.1v14.1h-2v-14h-6.7v-1.5h15.3v1.5L298.5,67.1L298.5,67.1z"/>
		<path class="st2" d="M321.7,79.4c-1.4,1.3-3.3,2-5.6,2c-2.3,0-4.1-0.6-5.6-1.9c-1.4-1.3-2.2-2.9-2.2-5v-8.9h2v8.8
			c0,1.7,0.5,3,1.5,3.9c1,1,2.4,1.4,4.2,1.4c1.7,0,3.1-0.5,4.1-1.5c0.5-0.5,0.9-1.1,1.2-1.7c0.3-0.7,0.4-1.4,0.4-2.3v-8.7h2v8.8
			C323.8,76.4,323.1,78.1,321.7,79.4z"/>
		<path class="st2" d="M339.9,81.2l-3.2-4.2c-0.3-0.4-0.6-0.8-0.9-1.2s-0.6-0.7-0.9-1c-0.3-0.2-0.6-0.4-1-0.6
			c-0.4-0.1-0.9-0.2-1.5-0.2H330v7.2h-2V65.6h4.8c1,0,1.8,0.1,2.6,0.3c0.8,0.2,1.4,0.4,2,0.8c1.1,0.7,1.7,1.8,1.7,3.1
			c0,1-0.4,1.9-1.1,2.5c-0.6,0.5-1.3,0.9-2,1.1c0.2,0.1,0.4,0.3,0.6,0.4s0.4,0.4,0.6,0.6c0.3,0.3,0.5,0.6,0.8,0.9s0.5,0.6,0.7,0.9
			l3.7,4.8L339.9,81.2L339.9,81.2z M335.8,67.9c-0.8-0.5-1.8-0.7-3.1-0.7H330v5.3h2.6c1.4,0,2.5-0.2,3.2-0.7c0.7-0.4,1.1-1.1,1.1-2
			C336.9,68.9,336.6,68.3,335.8,67.9z"/>
		<path class="st2" d="M361.4,81.2l-2.8-5.2h-8.2l-2.8,5.2h-2.2l8.5-15.7h1.2l8.5,15.7C363.5,81.2,361.4,81.2,361.4,81.2z
			 M354.4,68.3l-3.3,6.1h6.6L354.4,68.3z"/>
		<path class="st2" d="M366.6,81.2V65.6h2v14h8.8v1.5L366.6,81.2L366.6,81.2z"/>
	</g>
</g>
<g>
	<polygon class="st4" points="0,41.5 8.6,41.5 8.6,12.2 60,43 60,2.3 51.5,2.3 51.5,31.2 0,0.4 	"/>
	<path class="st4" d="M128,28.7h-24.3l12.2-15.9L128,28.7z M131.5,33.2l7.8,9.9h9.2L115.8,2.2L83.1,43h9.2l7.8-9.9H131.5z"/>
	<polygon class="st4" points="186.3,8.3 202.6,8.3 202.6,3.8 161.4,3.8 161.4,8.3 177.7,8.3 177.7,43 186.3,43 	"/>
	<g>
		<path class="st4" d="M227.4,3v24.9c0,8.6,9.4,15.2,25.1,15.2s25.1-6.6,25.1-15.2V3H269v23.1c0,6.4-3.4,12.3-16.5,12.3
			c-13.2,0-16.5-5.9-16.5-12.3V3H227.4z"/>
		<path class="st4" d="M355.1,4.8c-5.2-1.8-11.3-2.7-17.3-2.7c-20.1,0-36.4,9.1-36.4,20.6c0,11.3,16.2,20.3,35.8,20.3
			c6,0,12.7-1,18-2.8v-5.8c-5.1,2.6-11.5,4-18.2,4c-15.3,0-26.9-7.3-26.9-15.9c0-8.7,11.8-16,27-16c6.5,0,13.2,1.3,18.1,3.8V4.8z"/>
		<polygon class="st4" points="383.5,43 420.3,43 420.3,38.6 392.1,38.6 392.1,23.8 419.5,23.8 419.5,19.3 392.1,19.3 392.1,8.3 
			420.3,8.3 420.3,3.8 383.5,3.8 		"/>
		<path class="st4" d="M452.6,8.2h2.3c8.5,0,18.7,0.9,18.7,7.1c0,6.3-9.5,7.2-18.2,7.2h-2.7V8.2z M465,26c10-0.7,16.4-5.4,16.4-11
			c0-3.7-3.3-7.4-9.1-9.4c-5.4-1.8-12-1.8-18.1-1.8h-10.4V43h8.6V26.5h3.5L476.1,43h10.4L465,26z"/>
		<path class="st4" d="M460.5,85.2c-0.5-0.8-1.5-1.5-2.3-1.5h-0.1c-1.9-0.2-3.4,0.8-4.8,1.8c-0.7,0.4-1.2,0.9-1.9,1.2h-0.1
			c-0.5,0.1-0.8,0-1.2-0.1c-0.5-0.1-0.9-0.2-1.5-0.1c-0.2,0-0.6,0-0.8,0.1c-2.6,0.2-4.2,0.2-4.5-2c-0.5-2-1.9-3.7-3.2-5l-0.3-0.3
			l0,0c-0.5-0.4-0.2-0.9-0.1-1.2c3.2-5.5,4.4-12.5-0.3-15.9c-0.3-0.3-0.7-0.3-1-0.4c-0.1,0-0.2,0-0.3,0c-1.8-1-2.9,0.8-3.7,2
			c-0.1,0.2-0.2,0.4-0.5,0.6c-2.3,3.2-3.1,8.6-0.2,11.9c0.2,0.3,0.5,0.6,0.7,0.9c0.3,0.4,0.7,0.9,1,1.3l0.1,0.1
			c0.2,0.2,0.5,0.4,0.5,0.7c0,0.1,0,0.3-0.1,0.6c-0.2,0.7-0.5,1.5-0.7,2.2c-0.6,1.9-1.1,3.8-2.5,5l0,0c-1.4,1-3.7,1.8-5.7,1.5
			c-1.1-0.2-1.9-0.7-2.5-1.6c-0.6-1-0.7-2.1-0.8-3.4c0-0.7-0.1-1.5-0.2-2.1c-0.6-4.1-3.8-6.3-8.8-5.8c-0.3,0-0.7,0.1-0.9,0.2
			c-0.5,0.1-0.7,0.2-1,0.1c-1.9-1.1-3.7,0.3-5.5,1.7c-0.8,0.6-1.6,1.2-2.5,1.7c-0.6,0.3-1.6,0.6-2,0.2c-0.1,0-0.2-0.1-0.2-0.3
			c0-0.2,0.1-0.4,0.2-0.8c0.2-0.6,0.5-1.2,0.3-1.9c-0.3-1.3-1.4-2.5-2.8-3.2c-1.9-1-4.4-1.2-6.3-0.6c0,0,0,0-0.1,0
			c-4.5,2.1-5.8,7.5-6.6,10.4c-0.1,0.4-0.2,0.9-0.3,1.3c0-0.1-0.1-0.2-0.2-0.4c-0.2-0.8-0.3-1.7-0.3-2.6c0-0.7-0.1-1.3-0.2-2
			c-0.6-3.9-4.4-5.7-7.9-5.4l0,0c-0.7,0-1.1,0.3-1.4,0.9c-0.2,0.6,0.1,1.1,0.7,1.6c0.5,0.3,1.1,0.4,1.7,0.6s1,0.1,1.1,0.4
			c0,0.1,0.1,0.3,0,1.1c-0.7,4.8-2.6,8.1-4.3,9.1c-0.7,0.4-1.2,0.4-1.8,0.3c-2-0.6-3.1-6.2-3.1-9.1c0-0.2,0.1-0.6,0.1-0.9
			c0.1-0.4,0.2-1,0.1-1.6l0,0c-0.5-1.1-1-1.2-1.5-1.3c-1,0-1.8,1.2-2.2,2.2c-0.5,1-0.7,2.1-0.9,3.1c-0.3,1.6-0.7,3-1.6,4.1
			c-1.7,2.1-4.1,4-5.8,3.8c-0.8-0.1-1.4-0.8-1.8-1.9c-0.2-0.3-0.3-0.8-0.6-1.1c-1.1-2.1-2.3-4.3-1.2-6.6c0.2-0.4,0.1-1.1-0.1-1.6
			c-0.3-0.6-0.8-0.9-1.4-1c-1.2-0.2-1.9,0.9-2.7,2c-0.8,1.3-1.5,3-2,4.5s-1.1,2.7-1.6,3.5c-0.9,1.3-2.9,2.5-4.4,1.9l0,0
			c-1.4-0.3-2-2.1-2.5-3.6v-0.1c-0.2-0.4-0.5-1-0.8-1.6c-0.8-1.6-1.7-3.5-1.9-4.9c0-0.2,0-0.2,0-0.2c0.1-0.1,0.9,0,1.1,0.1
			c0.3,0.1,0.8,0.1,1,0.1c0.6,0,1.1-0.2,1.4-0.6c0.2-0.3,0.2-0.8,0-1.1s-0.6-0.6-1.1-0.7s-1-0.1-1.5-0.2c-1.8-0.2-2.5-0.2-2.4-2.4
			v-0.1v-0.1c-0.2-0.8-0.1-1.8,0-2.7c0.2-1.3,0.3-2.7-0.3-3.9V66c-0.6-0.6-1-0.8-1.5-0.6c-1,0.4-0.8,2.7-0.8,2.7
			c0.2,2.4-0.2,4.1-0.8,6.6c-0.1,0.6-0.2,0.9-0.6,1c-0.6,0.2-1.5,0.2-2.3,0.1c-0.1,0-0.3,0-0.5,0c-0.9-0.1-1.1,0.2-1.2,0.6v0.1
			c0,0.9,0.8,1.5,1.6,1.7c0.5,0.2,1,0.1,1.4,0.1c0.1,0,0.1,0,0.2,0c0.2,0,0.5,0.1,0.5,0.3c0.1,0.4,0.1,1-0.1,1.7
			c-0.8,2.9-4.1,6.8-5.3,7.6c0,0,0,0-0.1,0c-2,0.8-3.5,1-4.3,0.6c0,0-0.1,0-0.1-0.1c-1.2-1-1-2.9-0.8-4.7c0-0.3,0-0.7,0-1.1
			c0-0.1,0-0.3,0-0.4c0-0.6,0.1-1.2,0.3-1.8c0.1-0.7,0.3-1.2,0.3-1.9c0-0.1,0-0.1,0-0.2c0.1-0.7,0.2-1.5-0.5-2.1
			c-1.1-1-2.6-1.7-4.8-2c-0.8-0.1-1.6-0.2-2.3-0.2l0,0c-0.2,0-0.5,0-0.6,0c-0.1,0-0.3,0-0.5,0c-6.2,0.6-9.6,4-9.6,4l0,0
			c-1.5,1.3-2.8,3-4.1,4.6c-1.9,2.5-3.8,4.8-5.3,4.7c-0.1,0-0.2-0.1-0.2-0.1c-1-1-1-2.6-1-4.4c0-1.2,0-2.5-0.5-3.5l0,0
			c-1.4-2.8-3.6-4.3-6.6-4.1c-3.3,0.1-6.6,2.2-8.4,5.3c-0.7-0.1-0.2,0-0.9-0.1c-0.2-1-0.5-2-1.2-2.7c-1.7-1.7-4.3-3.4-6.5-2.7
			c-1.1,0.3-2.5,1.3-3.2,4.3c-0.3,1.1,0,2.1,0.7,2.9c0.9,0.9,2.3,1.5,3.5,1.2c0.5-0.1,0.6-0.4,0.6-0.6c0.1-0.3-0.2-0.8-0.7-1.2
			c-0.2-0.1-0.5-0.3-0.7-0.4c-0.3-0.2-0.8-0.4-0.8-0.7c0-0.3,0.1-0.7,0.3-1c0.8-1.6,1.4-2.2,2.6-1.8c2.3,0.8,2.6,3,2.9,5.5
			c0.1,0.6,0.1,1.2,0.2,1.9l0,0c0.5,1.9,1.9,5.5,3.4,7.8c0.3,0.7,1,1.2,1.7,1.2c0.1,0,0.1,0,0.2,0c0.3-0.1,0.8-0.3,0.9-1.3
			c0-0.6-0.2-1-0.5-1.6l-0.1-0.2c-1.4-3.2-1.6-5.8-0.5-7.8c1.1-2,3.3-4.4,5.8-4.9c1.2-0.3,2.5-0.1,3.5,0.6c0,0,0,0,0.1,0
			c1.2,1.1,1.2,2.7,1.1,4.4c0,1.1,0,2.2,0.3,3.2c0.7,2,1.9,3.4,3.5,3.8c1.5,0.4,3.2,0,4.6-1.2c0.5-0.3,0.8-0.8,1.1-1.2l0,0
			c0.8,2.4,3.3,3.2,5.4,3.9c0.3,0.1,0.6,0.2,0.9,0.3c4.5,1.3,8.8-1.2,11.3-4c0.1-0.1,0.2-0.3,0.5-0.4c0.1-0.1,0.3-0.3,0.5-0.4
			c0,0,0.1,0.1,0.1,0.2c1.1,3.5,3.3,4.5,4.9,4.6c3.1,0.3,7-2.1,9.3-5.9c1.1-2.1,1.9-4,2.4-5.8c0.1-0.6,0.9-0.4,0.9,0l0,0v0.1
			c0.1,0.4,0.3,0.9,0.5,1.3c0.2,0.4,0.3,1,0.6,1.6c0.1,0.4,0.3,0.9,0.7,1.5c0.3,0.6,0.6,1.1,0.8,1.9c0.2,0.6,0.5,1.2,0.8,1.8
			c0.5,0.8,1.2,1.6,2.5,2.2c1.7,0.9,3.3,1.1,4.8,0.6c2-0.8,3.7-2.9,5.2-6.6c0.1-0.2,0.2-0.6,0.5-1.2c0.1-0.2,0.1-0.4,0.2-0.7
			c0.3,1.5,1,2.7,1.8,3.9l0.1,0.2c0.7,1.7,1.8,3.7,4.1,4.5c0.6,0.2,1.1,0.2,1.7,0.2c4-0.6,6.9-4,8.4-7.6c0.1,0.2,0.2,0.4,0.3,0.7
			c0.5,1,1.1,2.5,1.9,3.7c1.2,2,2.7,3,4.3,3c2.8-0.1,5-3.6,6.1-5.7l0,0c0.5-1.1,0.7-2.2,0.9-3.4c0.2-0.9,0.5-1.9,0.8-2.9
			c0-0.1,0.1-0.2,0.1-0.3c0.2,0.8,0.2,1.7,0.3,2.6c0,0.8,0.1,1.6,0.2,2.4c0.2,0.8,0.5,1.5,0.7,2.1c0.1,0.4,0.3,0.9,0.5,1.3l0.1,0.3
			c0.6,1.5,1.4,3.5,3.2,3.7h0.1l0.1-0.1c0.8-0.4,0.7-1.5,0.6-2.4c0-0.3-0.1-0.8,0-1c1-7.7,3.4-11.9,7-12.4h0.1c2.2,0,3.5,0.4,4,1.1
			c0,0,0.1,0.1,0.1,0.2c0.1,0.3-0.1,0.9-0.5,1.2c-0.1,0-0.1,0-0.1,0h-0.1c-0.6-0.3-1.4-0.7-2-0.7c-1.5-0.2-2.7,0.2-3.3,1.2
			c-0.5,0.9-0.2,1.9,0.6,2.9c1.6,1.7,3.3,2.2,4.6,1.5l0,0c1-0.8,1.6-0.6,2.5-0.2c0.5,0.1,0.9,0.3,1.5,0.4c0.3,0,0.7,0,1.1-0.1
			c0.3-0.1,0.7,0.2,0.6,0.7c-2.3,5-0.2,7.1,0.8,7.7c3.3,2.1,10.4,0.2,14.4-5.2c0.2-0.2,0.3-0.3,0.5-0.6c0-0.1,0.1-0.1,0.1-0.2
			c0.1,0.2,0.3,0.8,0.3,1l0.1,0.2c0.5,1.3,1,3.2,2.3,4.3c0.6,0.4,1.1,0.7,1.9,0.9c4.8,0.7,10.2-0.7,11.2-6.6
			c0.2-0.9,0.6-1.9,0.8-2.6s0.3-0.8,0.3-0.8c0.1,0,0.2,0,0.5,0.2c1.2,0.8,1.7,2.1,2.3,3.6c0.5,1.2,0.9,2.6,1.9,3.5
			c1.1,1.1,2.6,1.1,4,1.1c0.2,0,0.6,0,0.8,0h0.1c1.9,0.6,4,0.3,5.7-0.4c0.7-0.3,1.4-0.8,1.9-1.2c0.3-0.2,0.7-0.4,0.9-0.7
			c0.8-0.6,1.4-0.8,2.2-0.8l0,0l0,0c0.1,0,0.3,0.1,0.6,0.2c0.5,0.2,1,0.4,1.5,0.1h0.1v-0.1C460.7,86.1,460.7,85.6,460.5,85.2
			 M319.5,78c0,0.1,0,0.3,0,0.4l0,0c-0.9,5.3-5.9,10.8-11.4,10.1c-1.8-0.1-4.3-0.3-4.9-2c-0.3-1,0.5-2.4,1-3.2
			c2.5-4.6,8.1-6.2,12.4-6.2h0.1c0.3,0,0.7,0,0.9-0.1c0.6-0.1,1.1-0.1,1.6,0c0.2,0,0.3,0.2,0.3,0.4C319.6,77.7,319.5,77.9,319.5,78
			 M419.8,80.4L419.8,80.4c-0.6,2.8-5.1,6.1-6.6,7.1l0,0c-3.3,1.5-5.7,1.7-6.6,0.6c-0.9-1.2,0.1-3.9,2.2-6.3
			c1.7-1.9,4.2-3.5,6.8-3.5c1.1,0,2.3,0.2,3.4,0.9C419.6,79.5,420,79.9,419.8,80.4 M438.9,73.3c-0.1,0.9-0.6,1.6-1.1,2.4
			c-0.2,0.3-0.5,0.8-0.7,1.1l0,0c0,0,0,0-0.1,0c-3.1-3-3.7-7.6-1.6-10.8l0,0c0.1-0.1,0.1-0.3,0.2-0.4c0.6-1,1.1-2.1,2.2-2.1
			c0.2,0,0.5,0.1,0.7,0.3c2.2,2,1.4,5,0.7,8.1C439.1,72.3,439,72.7,438.9,73.3"/>
		<path class="st4" d="M254.2,87.6L254.2,87.6c-2.2-1.2-4,0-5.7,1c-1.1,0.8-2.3,1.5-3.3,1.3l0,0l0,0c-1.1,0.1-2.4-0.3-2.7-1.5
			c-0.1-0.4,0-1,0.1-1.6c0.1-0.4,0.2-0.9,0.2-1.2v-0.3c0.1-2.6,0.2-5.3-0.5-7.8c-0.5-1.6-1.6-2.2-2.9-2.5l0,0
			c-11.2-2.9-19.7,11.2-19.7,11.2c-4,5.7-9.2,4.9-11.3,4.4c-3.6-1-6.6-3.9-6.8-6.8c-0.1-2.5,1.6-4.6,5.1-5.9c1.8-0.4,4-0.3,4.9,1
			c0,0.1,0,0.3,0,0.6c0,0.3,0,0.7,0,0.9c0.1,0.3,0.3,0.7,0.7,0.9c0.3,0.1,0.8,0.2,1.1,0c0.9-0.4,1.1-1.1,1.1-1.6
			c0.1-1.3-1.1-2.8-2-3.5c-2.8-2.2-5.3-1.6-8.3-0.7l0,0c-2.7,1.2-4.9,4-5.2,6.9c-0.1,1,0,2.1,0.3,3.1c0.1,0.3,0.1,0.7,0,0.9
			c-0.1,0.2-0.5,0.4-0.8,0.7c-0.2,0.1-0.5,0.3-0.7,0.6c-1.1,1-2.7,1.1-4.3,1.2c-2.9,0.2-4.2-2.8-5.7-5.9c-0.5-1-0.9-2-1.5-3
			c-0.1-0.2-0.2-0.4-0.3-0.7c-0.6-1.1-1.2-2.4-2.3-2.6c-0.3,0-0.8,0-1.2,0.6c-1.1,1.2-1.9,2.8-2.8,4.5c-1.6,3.1-3.2,6.3-6.8,6.7
			c-2.3,0.3-2.7-1.6-3.2-4.8c-0.3-2.5-0.8-5.3-2.8-6.7c-1.8-1.3-3.8-1.1-5.8,0.6l-0.2,0.1c-0.5,0.3-1,0.8-1.1,0.7
			c0,0-0.2-0.1-0.6-0.8l0,0c-0.5-0.8-1.1-1.2-2-1.5c-1.1-0.2-2.5,0.2-3.5,1.1c-0.3,0.3-0.7,0.6-1,0.9l-0.5,0.4c-1,0.8-1.5,1.9-2,2.9
			l-0.1,0.2c0-0.1-0.1-0.2-0.1-0.4l-0.1-0.4c-0.2-1.1-0.6-2.2-1.1-3.2c-1-1.8-3.1-3-5.1-3.2c-1.5-0.1-2.7,0.4-3.5,1.5
			c-1.2,1.7-0.8,3.8-0.3,5.8c0.7,2.8,0.9,4.7-1.7,5.6c-0.9,0.3-1.7,0.6-2.5,0.2c-1.9-0.8-2.6-2.7-3.5-4.6c-0.9-2.5-2-5.2-4.8-6.6
			c-5.1-3.4-10.4-0.7-15.1,1.8c-3.8,2-7.2,3.7-9.6,1.7c-0.6-0.4-0.8-1.1-1-1.8c-0.2-0.6-0.5-1.1-0.8-1.7c-1.1-1.2-2.7-1.9-4.6-1.9
			h-0.1c-3.5,0-7.1,2-9.1,3.9l0,0.4c-0.2,0.2-0.7,0.8-0.9,0.8c0,0-0.1,0-0.1-0.2c-0.2-2-1-3.6-2.5-4.4c-2.7-1.7-6.9-0.4-9.2,0.4
			h-0.1c-0.6,0.3-0.9,0.8-1,1.2c-0.2,0.9,0.6,1.9,1.4,3c1.6,2.2,3.6,4.9,0.1,8.7C72.2,91,68,92,64.4,90.6c-0.9-0.3-1.7-0.9-2.5-1.5
			c-0.3-0.2-0.6-0.6-0.9-0.9c-0.5-0.4-0.9-1-1.5-1.3c-0.1-0.1-0.2-0.1-0.3-0.2c-0.1,0-0.1-0.1-0.1-0.1c0.3-0.1,0.9-0.2,1.5-0.4
			c2.6-0.7,7-1.7,7-5.6c0-2.1-0.9-4.8-3.2-5.8c-2.5-1.2-5.9-1-8.4,0.3c-1.7,0.9-2.7,2.4-2.9,4c-0.3,2.1,0.5,4.4,1.2,5.6
			c0.3,0.6,0,1-1.1,1.8c-0.1,0.1-0.3,0.2-0.5,0.3c-0.7,0.4-1.4,0.9-2,1.5c-4.1,3.9-10.6,3.8-14.5-0.1l0,0c-0.2-0.1-0.5-0.3-0.6-0.4
			c-1.4-1-2.6-1.9-2.4-3.5c0.6-4.3,1.8-5.8,5.9-7.5c1.8-0.7,2.2-0.2,3.2,1.1c0.2,0.3,0.5,0.7,0.8,1.1l0.1,0.1
			c0.6,0.6,1.2,1.5,2.2,1.2h0.1h0.1c0.3-0.2,0.6-0.6,0.7-0.9c0.2-1-0.8-2.2-1.7-3.2c-0.2-0.2-0.5-0.6-0.6-0.8c-0.7-0.9-1.5-2-2.8-2
			c-1.7-0.1-3.5,0.7-5.1,1.2H36c-3.7,2.2-5.7,5.4-5.5,8.9c0.1,3.7,2.7,7.1,6.7,9.1c7.8,4.7,15.6-1.2,18.7-4c0.8-0.6,1.6,0,2.7,0.9
			c0.1,0.1,0.2,0.2,0.3,0.3c0.5,0.3,0.8,0.8,1.2,1.2c0.8,0.8,1.6,1.6,2.5,2.2c1.4,0.9,2.8,1.3,4.4,1.3c3.8,0,8-2.4,10.4-4.6l0.1-0.1
			c1.4-2.2,2.5-5.8,1.4-8.7c-0.1-0.6-0.6-1.2-1-1.8c-0.3-0.4-0.9-1.2-0.8-1.5c0,0,0.1-0.2,1.4-0.3c2.3-0.2,3.6,0,4.3,0.7
			c0.7,0.7,0.5,1.9,0.3,3.4c-0.2,1.8-0.5,4,0.5,6.3c0.3,0.7,0.7,1.2,0.9,1.9c0.5,1.2,1.4,2.8,2.3,3c0.2,0,0.7,0,1-0.3l0,0
			c0.7-0.8,0.7-1.9,0-3.1L87.6,89c-1-1.7-1.1-1.9-0.6-3.8v-0.1c0.1-1.8,1.1-3.6,2.9-5c1.9-1.6,4.4-2.4,6.5-2c0.1,0,0.2,0,0.2,0.1
			s-0.2,0.4-0.3,0.7c-0.9,1.5-1,2.8-0.2,3.8c0.7,0.9,2,1.7,4.2,0.3c0.3-0.2,0.6-0.1,1.1,0.3c3.7,3,7.6,0.9,11.2-1.5
			c0.2,0.1,0.1,0.4,0,0.8c-0.1,0.1-0.2,0.3-0.3,0.6l0,0l0,0c-1,1.8-1.5,4.1-1.4,8c0.1,1.8,1,3,2.5,3.2c5.3,1.1,10.5-0.3,13.7-3.6
			c0.7-0.7,1.4-1.5,1.8-2.6c0.2-0.3,0.6-1,1-1.1c0.3-0.1,0.7,0.2,1,0.4c0.3,0.3,0.7,0.8,1,1.2c0.8,1,1.6,2.1,2.9,2.6
			c1.6,0.6,3.5,0.3,5-0.6c1.9-1.2,3.2-3.5,3.3-5.7c0-0.9-0.3-1.9-0.7-2.8c-0.5-1.2-0.8-2.5-0.5-3.1c0.2-0.3,0.7-0.7,1.4-0.8
			c3.1-0.6,4,2.4,5.1,6.7c0.6,2.4,1.1,4.5,2.3,5.8c0.3,0.3,0.7,0.6,1,0.6l0,0c0.3,0,0.6-0.1,0.8-0.3l0,0c0.6-0.8,0.2-1.8-0.1-3
			c-0.5-1.9-1.1-4.3,1.4-6.6c2.2-1.9,2.8-1.9,3.1-1.8c0.3,0.1,0.5,1,0.5,1.7c0.1,0.9,0.2,1.9,0.9,2.4h0.1h0.1c1.2,0.2,2-0.7,2.7-1.5
			c0.3-0.3,0.7-0.7,0.9-0.9l0,0c1-0.9,2.3-1.2,3.2-0.9c0.9,0.3,1.5,1.1,1.8,2.5c0.1,0.6,0.2,1.2,0.2,1.9c0.5,3.5,1,8.2,5.8,7.5
			c5.1-0.8,7.7-6.1,9.8-10.3c0.1-0.3,0.3-0.7,0.5-1c0.1-0.2,0.1-0.2,0.1-0.3c0,0,0.1,0.1,0.2,0.3c0.8,1.1,1.5,2.7,2,4.3
			c1.6,3.9,3.4,8.3,8.5,7.4c2.2-0.3,4.1-1,5.7-1.9c0.2-0.1,0.5-0.3,0.6-0.4c0.2-0.2,0.6-0.4,0.6-0.4c0.1,0,0.3,0.3,0.7,0.9
			c2.3,3.4,6.8,3.8,9.3,3.8c3.7,0.2,6.7-1.9,8.5-3.7c0.8-0.7,1.5-1.5,2.2-2.2c0.3-0.4,0.7-0.8,1.1-1.2c0,0.1,0,0.2,0,0.2
			c0.6,3.4,2,5.3,4.3,5.8c3.7,0.8,9.1-2.9,12.4-7.2c0,0.1,0,0.2,0,0.2c-0.3,2.9,0.2,5,1.7,6.2c1.2,1.1,3.2,1.3,5.5,0.7
			c0.9-0.2,1.7-0.7,2.4-1.1c0.7-0.3,1.2-0.8,1.9-1c0.3-0.1,0.6-0.2,0.9-0.2c0.2,0,0.5,0,0.7,0c0.7,0,1.4,0,1.7-0.6
			C255.1,89.1,254.8,88.1,254.2,87.6 M57.5,83.8L57.5,83.8c-1.1,0-1.2-1.6-1.4-3.4c0-0.2,0-0.4,0-0.6l0,0c0.2-2.1,2.6-3.1,4.9-3
			c1.4,0,4.3,0.7,4.5,2.2C65.3,81.3,62.6,82.9,57.5,83.8 M127.9,81.8c-0.2,0.6-0.5,1.1-0.2,1.8v0.1c0.1,1.5-0.3,2.7-1.4,3.9
			c-2,2.4-5.8,3.2-8.4,3.5c-0.2,0-0.3,0-0.6,0c-1.2,0-2.6,0.1-3.3-1c-1.1-1.7-0.3-5.2,1.5-6.9c1.5-1.1,6.9-3.7,10.2-3.7
			c0.5,0,0.9,0.1,1.4,0.2c0.6,0.2,1,0.6,1.1,1.1C128.2,81.1,128.1,81.5,127.9,81.8 M229,90c-1.8,0.3-2.8-0.6-3.2-2.5v-0.2
			c-0.5-1.2-0.1-2.9,0.9-3.8c0.1-0.1,0.3-0.2,0.6-0.3c0.3-0.2,0.8-0.4,1.1-0.8c1.5-1.6,3.5-2.6,5.5-3.5c0.5-0.2,1-0.4,1.5-0.7
			c0.2-0.1,0.5-0.2,0.8-0.2c1.6-0.2,3.4-0.2,3.6,1.1C240.1,82,233.7,89.2,229,90"/>
		<path class="st4" d="M182.4,74.2c0.2,0.1,0.6,0.1,0.8,0.1c1.2,0,2.8-0.8,3.3-2v-0.2l0,0c-0.1-1.7-1.5-2.5-2.7-2.7
			c-1.2-0.1-2.6,0.4-3.1,2C180.6,72.9,181.2,73.9,182.4,74.2"/>
		<path class="st4" d="M129.1,73.4c0.2,0,0.5,0,0.5,0h0.2c1.2-0.4,2.8-1.3,3.1-2.7v-0.1c0-1.6-2.4-1.9-3.2-1.9c-0.3,0-0.6,0-0.9,0.1
			c-0.9,0.4-1.2,1.5-1.6,2.4c-0.1,0.3-0.2,0.6-0.3,0.9v0.1c0,0.3,0,0.6,0.2,0.8C127.7,73.3,128.6,73.4,129.1,73.4"/>
	</g>
</g>
</svg>
