<svg width="80" height="62" viewBox="0 0 80 62" fill="none" xmlns="http://www.w3.org/2000/svg">
<g id="Group">
<g id="Capa_1">
<g id="Group_2">
<path id="Vector" d="M25.1933 45.6491L23.4197 46.0151L17.601 61.918L20.2902 61.3633L20.3292 61.2526C20.6726 60.2753 21.2248 58.8024 21.9732 56.8716L26.7329 55.8905L28.4196 59.6854L31.0121 59.1508L25.1933 45.6491ZM25.7845 53.7345L22.9002 54.3295L24.3593 49.9283L25.7845 53.7345Z" fill="white"/>
<path id="Vector_2" d="M43.3176 56.6112L40.1805 57.2577L35.3454 51.9962V50.7811L35.5026 50.7421C35.5177 50.7383 36.9642 50.3799 37.4359 50.244C39.6598 49.6013 39.8371 48.6453 39.8371 47.4642C39.8371 46.8843 39.6208 46.3736 39.246 46.0642C38.8372 45.7296 38.251 45.6277 37.5491 45.7736L34.602 46.3812V58.4099L32.1643 58.9131V44.3913L37.4523 43.3007C38.8711 43.0077 40.0887 43.2341 40.9692 43.9573C41.812 44.6491 42.295 45.7787 42.295 47.0566C42.295 49.2692 40.9428 51.2503 38.8258 52.1836L43.3176 56.6112Z" fill="white"/>
<path id="Vector_3" d="M52.9601 52.1484V54.6213L43.954 56.4792V41.9788L52.94 40.1247V42.5964L46.4319 43.9397V47.4617L52.7991 46.1472V48.6403L46.4319 49.9535V53.4956L52.9601 52.1484Z" fill="white"/>
<path id="Vector_4" d="M65.2921 37.5549V52.0755L63.389 52.4679L56.8961 44.4001V53.8088L54.4382 54.3157V39.7725L56.3011 39.4115L62.8545 47.5472V38.0581L65.2921 37.5549Z" fill="white"/>
<path id="Vector_5" d="M74.1799 35.5399L72.4076 35.9059L66.5889 51.8088L69.2781 51.2528L69.3159 51.1421C69.6605 50.1648 70.2127 48.6906 70.9611 46.7623L75.7195 45.7799L77.4063 49.5761L79.9987 49.0403L74.1799 35.5399ZM74.7724 43.624L71.8881 44.219L73.346 39.8178L74.7724 43.624Z" fill="white"/>
<path id="Vector_6" d="M62.4053 25.4381L59.2053 27.0381V12.6371L62.4053 11.0358V25.4381Z" fill="white"/>
<path id="Vector_7" d="M63.0607 7.08624C63.0607 8.41201 61.9865 9.4862 60.6607 9.4862C59.3349 9.4862 58.2607 8.41201 58.2607 7.08624C58.2607 5.76048 59.3349 4.68628 60.6607 4.68628C61.9865 4.68628 63.0607 5.76048 63.0607 7.08624Z" fill="#DE5413"/>
<path id="Vector_8" d="M76.8001 7.68748V12.0145C75.4794 10.383 73.4618 9.33776 71.1989 9.33776C67.2229 9.33776 63.9965 12.5629 63.9965 16.5402C63.9965 20.5175 67.2216 23.7401 71.1989 23.7401C73.4618 23.7401 75.4794 22.6973 76.8001 21.0659V26.1539L63.2469 29.6104L63.1714 29.6079L17.6023 41.292V42.8932L63.6192 33.4506L79.995 30.0909V28.4947L80 28.4922V6.08624L76.8014 7.68748H76.8001ZM71.1989 20.5401C68.9876 20.5401 67.199 18.7489 67.199 16.5402C67.199 14.3314 68.9876 12.5402 71.1989 12.5402C73.4102 12.5402 75.1989 14.3289 75.1989 16.5402C75.1989 18.7515 73.4077 20.5401 71.1989 20.5401Z" fill="white"/>
<path id="Vector_9" d="M50.4042 14.666C47.9741 14.666 46.1653 15.954 44.7515 17.715C42.9377 19.9753 36.7579 27.5236 36.7579 27.5236L31.714 26.2281C32.4121 26.0469 41.9767 19.1175 41.9767 10.5302C41.9767 -3.1111 20.0903 -4.34001 20.7707 11.8233V11.466L20.8022 27.467L12.7885 8.26608L0 27.4494H3.19995L9.60111 19.4558L17.6022 37.7373L24.0097 36.0946C24.0097 36.0946 24.0097 32.0997 24.0097 27.4683L36.8045 32.8116L43.6723 24.4205C44.7024 27.1375 47.3276 29.0695 50.4055 29.0695C54.3828 29.0695 57.6066 25.8457 57.6066 21.8684C57.6066 17.8911 54.3828 14.6672 50.4055 14.6672M28.836 25.4734L24.0021 24.2407V11.466C24.0021 6.26862 29.8813 3.7542 33.3693 7.39439C35.5215 9.54656 35.202 14.11 35.202 14.6672C35.007 20.0521 31.0045 23.4923 28.8348 25.4746M50.4042 25.8671C48.1942 25.8671 46.4043 24.0759 46.4043 21.8671C46.4043 19.6584 48.1955 17.8672 50.4042 17.8672C52.613 17.8672 54.4042 19.6584 54.4042 21.8671C54.4042 24.0759 52.613 25.8671 50.4042 25.8671Z" fill="white"/>
</g>
</g>
</g>
</svg>
