<svg id="Capa_1" data-name="Capa 1" xmlns="http://www.w3.org/2000/svg" viewBox="0 0 169.9 55.5"><defs><style>.cls-1{fill:#fff;}</style></defs><polygon class="cls-1" points="0 32.4 5.1 32.4 5.1 8.6 5.2 8.6 19.2 32.4 24.8 32.4 24.8 0 19.7 0 19.7 23.9 19.6 23.9 5.7 0 0 0 0 32.4"/><polygon class="cls-1" points="63.9 32.4 69.8 32.4 80.3 0 74.9 0 67 25.7 66.9 25.7 59.3 0 53.7 0 63.9 32.4"/><path class="cls-1" d="M129,9.6a5.26,5.26,0,0,1-1.3,3.9,5.26,5.26,0,0,1-3.9,1.3H115V4.6h8.7a12.31,12.31,0,0,1,2,.2,5.09,5.09,0,0,1,1.7.7A4.43,4.43,0,0,1,128.6,7a6.77,6.77,0,0,1,.4,2.6m4.7,3a10.44,10.44,0,0,0,.6-3.8,8.37,8.37,0,0,0-2.5-6.5C130.1.8,127.6,0,124.2,0H109.6V32.4H115V19.1h7.9a8.53,8.53,0,0,1,3,.5,4.21,4.21,0,0,1,1.9,1.6,5.41,5.41,0,0,1,.9,2.7,21.69,21.69,0,0,1,.3,3.8,21.75,21.75,0,0,0,.1,2.5,6.15,6.15,0,0,0,.7,2.3h5.7a7.31,7.31,0,0,1-1.3-3.3,28.16,28.16,0,0,1-.4-5.2,9.77,9.77,0,0,0-.5-3.2,10.34,10.34,0,0,0-1.1-2.1,7.89,7.89,0,0,0-1.5-1.2,8.8,8.8,0,0,0-1.5-.5v-.1c.3-.1.7-.3,1.2-.5a6.43,6.43,0,0,0,1.7-1.3,7.69,7.69,0,0,0,1.6-2.5"/><polygon class="cls-1" points="136.1 4.9 145.8 4.9 145.8 32.4 151.2 32.4 151.2 4.9 160.9 4.9 160.9 0 136.1 0 136.1 4.9"/><rect class="cls-1" x="164.5" width="5.4" height="32.4"/><polygon class="cls-1" points="27.6 32.4 39.5 0 45.1 0 56.9 32.4 51.3 32.4 42.3 5.4 33.2 32.4 27.6 32.4"/><polygon class="cls-1" points="77.4 32.4 89.3 0 94.9 0 106.7 32.4 101.1 32.4 92.1 5.4 83 32.4 77.4 32.4"/><path class="cls-1" d="M127,52.7a1.87,1.87,0,0,0,2.5,1.1,4.47,4.47,0,0,0,2-1.6,12.81,12.81,0,0,0,2.4-6.2,1.29,1.29,0,0,0-.6-1.3c-1.5-.7-2.5-.8-3.6.4a1.38,1.38,0,0,0-.3.4,17.35,17.35,0,0,0-2.1,3.4,5.58,5.58,0,0,0-.6,2.3,4,4,0,0,0,.3,1.5M38.8,45a3.09,3.09,0,0,0,.6,3.2,13.07,13.07,0,0,1,1.1,1.2c.3.5.5.5,1,.2a9.55,9.55,0,0,0,1.6-1.2,4.53,4.53,0,0,0,1.5-2.8c.1-.4.1-.8.2-1.2a.83.83,0,0,0-.3-.8,4.32,4.32,0,0,0-2.6-.9A3.76,3.76,0,0,0,38.8,45m24.7,7a2.09,2.09,0,0,0,2.8,1.8,4.74,4.74,0,0,0,1.9-1.2,14.23,14.23,0,0,0,3.2-5.1,14.16,14.16,0,0,0,.7-2.2,1.09,1.09,0,0,0-.4-1.2,3.31,3.31,0,0,0-3.8-.2c-.4.3-.8.6-1.1.8-2.3,1.4-3.2,3.6-3.5,6.3a3,3,0,0,1,.2,1m70,.5a5.45,5.45,0,0,1-2.7,2.5,3.34,3.34,0,0,1-4.5-1.4,5.24,5.24,0,0,1-.8-4.7,5.49,5.49,0,0,1,1.2-2.1,11.27,11.27,0,0,0,1.2-1.8c.1-.2.3-.5.1-.6s-.3.1-.5.2a3,3,0,0,0-.7.5,4.7,4.7,0,0,0-1.7,2.2c-.4,1.1-.9,2.3-1.3,3.4a8.65,8.65,0,0,1-3,3.8,4.58,4.58,0,0,1-4.9.3,8.3,8.3,0,0,1-3.4-3.3,1.21,1.21,0,0,0-.5-.5,12.15,12.15,0,0,1-.9,2,4,4,0,0,1-4.2,2.3,4.26,4.26,0,0,1-3.4-3.5c-.1-.6-.2-1.1-.3-1.7a.6.6,0,0,0-.1-.4,8.34,8.34,0,0,0-.8,1.2c-.3.5-.7,1.1-1,1.6a6.67,6.67,0,0,1-2.1,2.3c-2,1.4-4.3.2-4.6-2.3a22.62,22.62,0,0,1,.2-4.5,9.4,9.4,0,0,0,0-2.9c0-.2-.1-.3-.1-.5a.78.78,0,0,0-1.1-.5,3.74,3.74,0,0,0-1.3,1.2c-.2.3-.5.7-.7,1a2.34,2.34,0,0,1-.7.7c-.1.1-.2.1-.4,0s-.2-.2-.1-.4a.37.37,0,0,1,.1-.3,3.08,3.08,0,0,0,.1-1c-.1-1-.5-1.6-1.2-1.7a1.89,1.89,0,0,0-2.1,1.1l-.3.9a38.77,38.77,0,0,1-1.1,4.9,19.34,19.34,0,0,0-.6,4.1.75.75,0,0,1-.6.7c-.4.1-.6-.1-.8-.4a3,3,0,0,1-.2-1.3c0-1.3.2-2.5.3-3.8a29.86,29.86,0,0,0,.4-4.3,2.23,2.23,0,0,0-.3-1.4c-.1-.2-.2-.3-.4-.1l-1.5,1.2a3.68,3.68,0,0,0-1.1,1.9,19.42,19.42,0,0,0-.7,3.3,22.11,22.11,0,0,1-.5,2.5c-.7,2.2-2.5,3.1-4.5,2.2a4.43,4.43,0,0,1-2.6-2.9,10.55,10.55,0,0,1-.5-1.9c-.3.4-.5.7-.8,1.1a22.26,22.26,0,0,1-1.9,2.4,5.18,5.18,0,0,1-3.2,1.6c-2.2.2-3.8-1.4-4-3.8a10.21,10.21,0,0,1,.3-3c0-.3.2-.6.1-.9s-.5-.2-.7-.3a19.75,19.75,0,0,0-2.6-.8c-.2-.1-.5-.2-.7-.3a1.26,1.26,0,0,1,.1-2.1c.1-.1.2-.1.2-.2s-.2-.1-.3-.1a4.9,4.9,0,0,0-3.2,1.2,3.49,3.49,0,0,0-1.4,3.2,8.75,8.75,0,0,0,.2,1.6c.2,1.2.6,2.4.7,3.7v1c0,.2,0,.4-.2.5a.66.66,0,0,1-.6-.1,2.41,2.41,0,0,1-.6-.8c-.3-.7-.5-1.5-.8-2.2a6.94,6.94,0,0,0-.5-1.3c-.1-.3-.3-.5-.4-.8s-.4-.6-.7-.5c-.3-.1-.2.3-.3.6a10,10,0,0,1-1.8,4.4,3.2,3.2,0,0,1-3.7.9,9.45,9.45,0,0,1-2.3-1.6c-.6-.6-1.2-1.2-1.9-1.8-.2-.1-.3-.2-.5,0-.7.5-1.4,1-2.1,1.6A12.71,12.71,0,0,1,36,55.3a5.27,5.27,0,0,1-3.5.1,7,7,0,0,1-5.2-5.7,8.3,8.3,0,0,1,.2-3.5,8.25,8.25,0,0,1,1-2.6,3.45,3.45,0,0,1,1.2-1.2,7.13,7.13,0,0,1,4-.9,3.55,3.55,0,0,1,1,.2,1.75,1.75,0,0,1,1.2,1.8c0,.1.1.3-.1.4s-.3-.1-.3-.2a2.34,2.34,0,0,0-1.6-1,4.74,4.74,0,0,0-4.7,3.1,10.16,10.16,0,0,0-.6,3.4c.1,2.5,1.6,3.8,3.5,4.7a3.36,3.36,0,0,0,2.6.3,7.32,7.32,0,0,0,3-1.9,6.7,6.7,0,0,1,1.8-1.6c.2-.1.1-.2,0-.3a17.39,17.39,0,0,1-1.1-1.8,6.3,6.3,0,0,1-1-3,3.38,3.38,0,0,1,2.8-3.8,6.54,6.54,0,0,1,3.4.1,3.57,3.57,0,0,1,2.5,4.3,6.6,6.6,0,0,1-3.5,5,14.34,14.34,0,0,0,2,2.3,2.81,2.81,0,0,0,2.3.6,2.14,2.14,0,0,0,1.6-1.3,8.92,8.92,0,0,0,1.2-4,14.52,14.52,0,0,1,.2-3.6v-.5a.46.46,0,0,1,.3-.5c.2-.1.3.1.5.2a7.49,7.49,0,0,1,1.5,2c.1-.2.2-.3.2-.4a6.45,6.45,0,0,1,4.2-3.7,4.59,4.59,0,0,1,2.6-.3,3.09,3.09,0,0,1,2.5,2.4.37.37,0,0,0,.1.3c.2.6.8.9,1.3.4a13,13,0,0,1,2.3-1.8,7.09,7.09,0,0,1,4.9-1.2,6.38,6.38,0,0,1,3.3,1.6.91.91,0,0,1,.3.7c.2,1.6,0,3.3.2,4.9.1,1,.2,2.1.3,3.1a2,2,0,0,0,1.3,1.7,1.62,1.62,0,0,0,1.8-.7,5.15,5.15,0,0,0,.9-2c.3-1.3.5-2.6.8-3.9a8.24,8.24,0,0,1,2.2-4.1,4.35,4.35,0,0,1,.7-.6,1.8,1.8,0,0,1,2.2,0c.3.2.6.5.9.7s.4.2.6-.1a4.54,4.54,0,0,1,3.5-1.5,1.6,1.6,0,0,1,1.4.8,2.7,2.7,0,0,0,.7.8c.1.2.2.2.4,0a3.29,3.29,0,0,1,1.3-.7,2.23,2.23,0,0,1,2.5.9,5.77,5.77,0,0,1,.9,2.6,32.53,32.53,0,0,1-.3,4.4,6.47,6.47,0,0,0,.1,2.4c.2.6.5.7,1.1.6a4.06,4.06,0,0,0,2.6-2.2,28,28,0,0,0,1.9-4.3c.4-1,.8-2,1.3-3a1.81,1.81,0,0,1,1.4-1,.81.81,0,0,1,.9.3c.2.3.1.6,0,1a1.38,1.38,0,0,1-.3.4,1.78,1.78,0,0,0-.4,1,18.19,18.19,0,0,0,0,3.3,25,25,0,0,1,.5,2.9,1.6,1.6,0,0,0,.9,1.3,3.55,3.55,0,0,0,.9.4c.4.2.7,0,1-.3a5.78,5.78,0,0,0,1.8-2.3,20.36,20.36,0,0,0,1.1-3.5,8.21,8.21,0,0,1,4.8-5.6,5.19,5.19,0,0,1,5.1.6,3,3,0,0,1,1.3,1.8c0,.1.1.3,0,.4,0,.4-.3.5-.6.3a3,3,0,0,1-.8-.8,2.84,2.84,0,0,0-2.9-1.1,6.2,6.2,0,0,0-3.2,1.4,3.87,3.87,0,0,0-1.3,2.7,7.07,7.07,0,0,0,.9,4.5,3.24,3.24,0,0,0,3.7,1.8,4.52,4.52,0,0,0,2.4-1.4,12.77,12.77,0,0,0,2.9-4.9,7.83,7.83,0,0,1,3.4-4.5,6.35,6.35,0,0,1,7.1.3,3.56,3.56,0,0,1,1.4,2.9c0,1.4-.2,2.7-.3,4.1a10.82,10.82,0,0,0,0,1.8,1.24,1.24,0,0,0,1.6,1.2,4.81,4.81,0,0,0,1.6-.8,6.5,6.5,0,0,1,2.2-1.1,3.59,3.59,0,0,1,1.1-.2,1.33,1.33,0,0,1,1.2,1.4.22.22,0,0,1-.2.2,36.56,36.56,0,0,1-4.6,1.8,3.76,3.76,0,0,1-4.2-1.6c.1-.1,0-.2-.1-.4"/><path class="cls-1" d="M104.1,39.4c1.5-.1,1.6.9,1.3,2.2,0,.2-.2.2-.3.2a3.33,3.33,0,0,1-1.4-.1.22.22,0,0,1-.2-.2,4.71,4.71,0,0,1-.4-1.7c0-.2,0-.3.2-.3s.6-.1.8-.1"/><path class="cls-1" d="M72.3,37.7c-1.1-.6-1.7,1-2.2,2.9-.1.2,0,.3.1.3a1.43,1.43,0,0,0,1.1.3q.15,0,.3-.3a15.92,15.92,0,0,0,1.3-2.2c.1-.3.1-.4,0-.5-.4,0-.5-.3-.6-.5"/></svg>