<svg id="Layer_1" enable-background="new 0 0 24 24" viewBox="0 0 24 24" xmlns="http://www.w3.org/2000/svg" xmlns:xlink="http://www.w3.org/1999/xlink"><linearGradient id="SVGID_1_" gradientUnits="userSpaceOnUse" x1="3.4" x2="22.568" y1="7.842" y2="16.78"><stop offset="0" stop-color="#fff" stop-opacity=".2"/><stop offset="1" stop-color="#fff" stop-opacity="0"/></linearGradient><g><path d="m18.0031376 12.5000019c0-2.1514893 1.2384624-4.0093994 3.038805-4.9132085-1.6071281-1.505188-3.6721077-1.586792-4.0390015-1.586792-.9752884 0-1.6712255.2641602-2.3437204.5195312-.651495.2475586-1.2668505.480957-2.1571617.480957s-1.5056658-.2333984-2.1571608-.480957c-.6724958-.2553711-1.368433-.5195312-2.3437214-.5195312-.6143784 0-6.0011768.1962891-6.0011768 7.0004888 0 5.5639648 3.7971311 10.9995117 6.0011768 10.9995117 1.3493853 0 2.1254168-.3154297 2.8106098-.59375.5352612-.2172852.9982424-.4052734 1.6902723-.4052734.6920309 0 1.1550121.1879883 1.6902733.4057617.6851931.277832 1.4612236.5932617 2.8101206.5932617 1.5441265 0 3.7429676-2.6710205 4.9975471-6.1817627-2.3683223-.6135254-3.9968623-2.7585449-3.9968623-5.3182373z" fill="#1a1a1a"/><path id="XMLID_1339_" d="m12.0022621 6c2.929637-.5999999 5.0296059-3.0148857 5.0003777-6.0000014-2.9296389.5999999-5.0296068 3.0148856-5.0003777 6.0000014z" fill="#1a1a1a"/><path d="m8.0011768 6.2500014c.9752884 0 1.6712255.2641602 2.3437214.5195312.651495.2475586 1.2668495.480957 2.1571608.480957s1.5056667-.2333984 2.1571617-.480957c.6724949-.2553711 1.368432-.5195312 2.3437204-.5195312.3536472 0 2.2817593.0888672 3.8601322 1.4424438.0608025-.0334473.1167221-.0744629.1788692-.1056519-1.6071281-1.505188-3.6721077-1.586792-4.0390015-1.586792-.9752884 0-1.6712255.2641602-2.3437204.5195312-.651495.2475586-1.2668505.480957-2.1571617.480957s-1.5056658-.2333984-2.1571608-.480957c-.6724958-.2553711-1.368433-.5195312-2.3437214-.5195312-.6143783.0000001-6.0011767.1962892-6.0011767 7.0004889 0 .0458984.0051889.0914307.0056775.1372681.0625121-6.6873174 5.3847229-6.8877569 5.9954993-6.8877569z" fill="#fff" opacity=".1"/><path d="m17.0024529 23.7500019c-1.348897 0-2.1249275-.3154297-2.8101206-.5932617-.5352612-.2177734-.9982424-.4057617-1.6902733-.4057617-.69203 0-1.1550112.1879883-1.6902723.4052734-.6851931.2783203-1.4612246.59375-2.8106098.59375-2.1858535 0-5.9337196-5.3466797-5.9954996-10.8622437-.0003663.0394898-.0056773.072754-.0056773.112732 0 5.5639648 3.7971311 10.9995117 6.0011768 10.9995117 1.3493853 0 2.1254168-.3154297 2.8106098-.59375.5352612-.2172852.9982424-.4052734 1.6902723-.4052734.6920309 0 1.1550121.1879883 1.6902733.4057617.6851931.277832 1.4612236.5932617 2.8101206.5932617 1.5441265 0 3.7429676-2.6710205 4.9975471-6.1817627-.0290585-.0075073-.0553093-.0214233-.0841846-.0294189-1.2714881 3.4002075-3.4020786 5.9611816-4.9133624 5.9611816z" opacity=".2"/><path d="m16.9794998.4421892c-.2063999 2.7311401-2.2307987 4.7339478-4.9741955 5.3046875-.0027466.0865479-.0038929.1655393-.0030384.2531247 2.8421106-.5820923 4.9035435-2.8775632 4.9974937-5.7393188-.0086822.0467571-.0054015.125549-.0202598.1815066z" opacity=".2"/><path d="m12.0053043 5.7342291c.0116253-.0652018.0260839-.2464743.0404158-.3561025.0104027-.1377368.0253725-.2731414.044775-.4061723.3654556-2.5056813 2.3033724-4.1691899 4.9092722-4.7112713.0027466-.0865479.0037231-.1730957.0028687-.2606812-2.8430253.5822142-4.9046011 2.8711289-4.9973317 5.7342273z" fill="#fff" opacity=".1"/><path d="m18.0031376 12.5000019c0-2.1514893 1.2384624-4.0093994 3.038805-4.9132085-1.6071281-1.505188-3.6721077-1.586792-4.0390015-1.586792-.9752884 0-1.6712255.2641602-2.3437204.5195312-.651495.2475586-1.2668505.480957-2.1571617.480957s-1.5056658-.2333984-2.1571608-.480957c-.6724958-.2553711-1.368433-.5195312-2.3437214-.5195312-.6143784 0-6.0011768.1962891-6.0011768 7.0004888 0 5.5639648 3.7971311 10.9995117 6.0011768 10.9995117 1.3493853 0 2.1254168-.3154297 2.8106098-.59375.5352612-.2172852.9982424-.4052734 1.6902723-.4052734.6920309 0 1.1550121.1879883 1.6902733.4057617.6851931.277832 1.4612236.5932617 2.8101206.5932617 1.5441265 0 3.7429676-2.6710205 4.9975471-6.1817627-2.3683223-.6135254-3.9968623-2.7585449-3.9968623-5.3182373zm-1.0005016-12.5000002c-2.9296513.5999756-5.0296116 3.0148926-5.00037 6 2.9296521-.6000369 5.0296115-3.0148926 5.00037-6z" fill="url(#SVGID_1_)"/></g><g/><g/><g/><g/><g/><g/><g/><g/><g/><g/><g/><g/><g/><g/><g/></svg>